<?xml version="1.0" standalone="no"?>
<!DOCTYPE svg PUBLIC "-//W3C//DTD SVG 20010904//EN"
 "http://www.w3.org/TR/2001/REC-SVG-20010904/DTD/svg10.dtd">
<svg version="1.0" xmlns="http://www.w3.org/2000/svg"
 width="1280.000000pt" height="1280.000000pt" viewBox="0 0 1280.000000 1280.000000"
 preserveAspectRatio="xMidYMid meet">
<metadata>
Created by potrace 1.14, written by Peter Selinger 2001-2017
</metadata>
<g transform="translate(0.000000,1280.000000) scale(0.100000,-0.100000)"
fill="#000000" stroke="none">
<path d="M6156 12702 c-3 -3 -48 -7 -99 -9 -154 -5 -217 -10 -224 -16 -3 -4
-13 -2 -23 3 -10 5 -20 6 -24 3 -3 -3 -21 -7 -38 -9 -18 -1 -60 -5 -93 -8 -33
-4 -82 -9 -110 -11 -27 -3 -61 -7 -75 -10 -14 -3 -44 -7 -66 -10 -78 -8 -139
-17 -179 -25 -22 -5 -65 -12 -95 -15 -30 -4 -58 -9 -63 -12 -4 -2 -20 -6 -35
-9 -64 -11 -139 -26 -167 -34 -16 -5 -44 -11 -62 -13 -17 -3 -36 -8 -41 -11
-4 -3 -19 -7 -33 -10 -13 -2 -60 -14 -104 -26 -44 -12 -88 -23 -98 -25 -9 -2
-22 -7 -29 -11 -6 -4 -21 -8 -32 -9 -12 -1 -34 -7 -50 -14 -16 -6 -36 -13 -45
-14 -9 -1 -22 -6 -28 -10 -7 -5 -23 -10 -35 -13 -13 -3 -27 -6 -33 -8 -5 -1
-20 -8 -32 -14 -13 -7 -23 -10 -23 -6 0 3 -7 1 -15 -6 -8 -7 -15 -10 -15 -7 0
5 -74 -22 -145 -52 -11 -5 -45 -19 -75 -31 -30 -13 -75 -32 -100 -43 -25 -11
-47 -21 -50 -22 -3 0 -27 -12 -55 -25 -27 -13 -52 -24 -55 -25 -3 0 -33 -15
-67 -33 -35 -18 -66 -32 -69 -31 -4 0 -10 -3 -13 -8 -3 -4 -26 -19 -51 -31
-25 -13 -63 -35 -85 -48 -22 -13 -47 -27 -55 -31 -8 -3 -29 -17 -46 -30 -17
-12 -34 -20 -37 -16 -4 3 -7 1 -7 -5 0 -7 -7 -12 -15 -12 -8 0 -15 -4 -15 -10
0 -5 -7 -10 -15 -10 -9 0 -18 -7 -21 -15 -4 -8 -10 -15 -15 -15 -8 0 -75 -40
-104 -63 -5 -4 -41 -31 -80 -59 -38 -29 -71 -55 -73 -60 -2 -4 -8 -8 -14 -8
-6 0 -18 -8 -27 -18 -9 -10 -36 -33 -61 -52 -72 -56 -97 -78 -229 -210 -141
-139 -195 -199 -296 -325 -22 -27 -43 -51 -47 -53 -5 -2 -8 -8 -8 -14 0 -5 -6
-16 -13 -23 -25 -29 -35 -42 -82 -115 -27 -41 -52 -77 -55 -80 -6 -6 -12 -17
-102 -175 -37 -66 -68 -126 -68 -132 0 -7 -4 -13 -10 -13 -5 0 -10 -5 -10 -11
0 -5 -10 -31 -22 -57 -12 -26 -21 -50 -20 -54 1 -5 -3 -8 -8 -8 -6 0 -10 -7
-10 -15 0 -8 -9 -32 -20 -52 -11 -21 -20 -45 -20 -53 0 -9 -7 -26 -16 -38 -8
-12 -12 -22 -8 -22 3 0 1 -7 -6 -15 -7 -8 -10 -15 -6 -15 4 0 0 -13 -9 -30 -9
-16 -13 -30 -10 -30 3 0 0 -10 -6 -22 -10 -19 -64 -193 -74 -238 -1 -8 -8 -35
-15 -60 -7 -25 -14 -56 -16 -70 -7 -45 -12 -75 -14 -75 -3 0 -19 -83 -25 -130
-6 -46 -14 -106 -20 -145 -3 -19 -8 -66 -11 -105 -3 -38 -7 -90 -9 -115 -6
-71 -6 -448 0 -525 4 -38 7 -91 8 -117 1 -27 4 -48 7 -48 3 0 5 -15 6 -33 1
-17 5 -59 9 -92 4 -33 9 -69 11 -80 1 -11 3 -20 4 -20 2 0 10 -36 14 -65 8
-54 18 -107 33 -160 8 -30 19 -71 23 -90 15 -67 67 -236 80 -260 7 -14 12 -25
11 -25 -6 0 78 -217 91 -232 6 -7 7 -13 2 -13 -4 0 -3 -5 4 -12 7 -7 12 -20
12 -30 0 -10 5 -18 10 -18 6 0 10 -5 10 -11 0 -15 103 -218 150 -296 22 -36
40 -67 40 -69 0 -2 20 -33 45 -70 25 -36 45 -69 45 -73 0 -4 9 -16 20 -26 11
-10 20 -22 20 -26 0 -5 6 -17 14 -26 8 -10 49 -63 92 -118 42 -55 81 -101 85
-103 5 -2 9 -8 9 -12 0 -13 36 -52 225 -243 158 -160 224 -221 300 -279 17
-12 35 -27 40 -34 6 -6 30 -26 55 -45 25 -18 47 -37 48 -41 2 -5 10 -8 17 -8
7 0 15 -4 17 -8 2 -4 39 -33 83 -63 44 -29 82 -56 85 -59 10 -10 69 -50 74
-50 3 0 25 -13 49 -30 25 -16 49 -30 55 -30 6 0 12 -4 14 -8 3 -9 71 -48 176
-103 30 -16 59 -32 65 -37 13 -9 213 -103 312 -147 33 -15 79 -35 102 -46 24
-10 49 -19 56 -19 8 0 17 -3 20 -7 18 -17 497 -175 514 -169 6 3 13 1 15 -4 2
-5 14 -11 28 -13 14 -3 45 -10 70 -17 51 -14 77 -20 105 -25 11 -3 40 -9 65
-16 25 -6 56 -13 70 -15 14 -3 57 -11 95 -19 39 -8 84 -16 100 -19 17 -3 41
-7 55 -10 22 -4 86 -13 145 -21 11 -2 43 -6 70 -9 28 -3 59 -8 70 -10 11 -2
61 -7 110 -11 50 -4 98 -9 108 -11 84 -15 615 -23 852 -13 l80 4 1 585 c0 322
-1 590 -4 597 -3 9 -25 11 -80 6 -97 -7 -472 -10 -472 -3 0 3 -37 5 -83 4 -45
0 -86 2 -91 5 -6 2 -38 6 -73 7 -34 1 -84 5 -110 9 -26 4 -66 9 -88 10 -22 1
-40 3 -40 5 0 1 -13 3 -30 4 -26 3 -73 9 -150 21 -11 2 -45 9 -75 15 -30 6
-71 13 -90 16 -19 3 -51 9 -70 14 -19 5 -46 11 -60 14 -53 11 -158 38 -225 58
-38 11 -74 21 -80 22 -19 4 -120 38 -140 47 -11 6 -30 11 -43 12 -12 0 -22 5
-22 9 0 4 -11 8 -25 8 -14 0 -25 4 -25 8 0 4 -10 9 -22 9 -13 1 -24 7 -26 13
-2 5 -14 10 -26 10 -13 0 -26 3 -30 7 -4 5 -11 8 -14 8 -4 1 -29 11 -56 23
-27 12 -50 22 -53 22 -7 0 -258 123 -263 129 -3 3 -25 16 -50 29 -68 34 -105
56 -108 65 -2 4 -8 7 -14 7 -28 0 -339 227 -452 330 -132 119 -379 396 -395
443 -2 7 -7 14 -11 17 -9 7 -70 100 -70 106 0 3 -9 18 -19 32 -17 25 -115 210
-116 222 -1 3 -11 25 -22 50 -32 70 -86 217 -98 270 -4 18 -43 172 -55 220 -5
19 -12 59 -15 89 -4 30 -10 73 -14 95 -4 23 -7 65 -7 93 1 29 -2 53 -6 53 -7
0 -3 420 5 475 2 17 8 59 13 95 4 36 8 67 9 70 1 3 5 25 9 50 5 25 10 54 12
65 2 11 6 31 9 45 3 14 17 66 31 115 14 50 27 97 28 105 2 8 8 26 14 40 9 21
21 52 27 70 40 117 197 413 242 458 7 7 13 17 13 21 0 4 9 17 20 29 12 12 18
22 15 22 -4 0 0 6 7 14 7 7 29 32 48 56 113 138 265 290 369 370 18 14 47 37
64 52 18 15 35 28 38 28 3 0 17 9 30 21 31 27 249 165 286 181 15 7 30 15 33
18 7 7 201 103 270 133 89 39 334 134 358 138 4 1 12 3 17 5 68 22 193 57 203
57 6 0 12 4 12 9 0 5 4 7 8 4 5 -3 35 2 68 11 32 8 66 17 74 18 8 2 15 4 15 5
0 1 11 4 25 5 14 2 70 13 125 25 55 12 107 23 115 24 24 5 113 19 135 21 11 2
40 5 65 9 25 3 61 8 80 11 19 3 53 7 75 10 22 3 72 7 110 10 39 3 111 8 160
12 112 9 707 9 835 0 200 -13 210 -14 365 -33 28 -3 61 -7 75 -9 14 -2 45 -7
70 -10 25 -3 68 -10 95 -15 28 -5 67 -12 89 -15 21 -3 41 -7 45 -9 3 -3 25 -7
47 -10 23 -4 56 -11 74 -16 18 -5 35 -9 39 -8 3 1 13 -1 21 -5 8 -3 26 -8 40
-10 14 -3 35 -8 48 -11 12 -3 30 -8 40 -10 9 -2 29 -9 45 -15 15 -6 27 -8 27
-6 0 2 12 0 28 -6 15 -6 34 -12 42 -14 21 -4 171 -54 195 -65 11 -4 61 -24
110 -43 50 -20 113 -46 140 -58 28 -13 53 -22 58 -21 4 1 7 -3 7 -9 0 -5 4 -8
9 -5 5 4 11 3 13 -1 1 -5 35 -23 73 -42 39 -19 99 -52 134 -73 34 -21 65 -38
67 -38 9 0 159 -104 162 -112 2 -4 8 -8 13 -8 5 0 17 -6 26 -14 10 -8 59 -47
108 -87 131 -106 275 -253 395 -402 8 -11 21 -25 28 -32 6 -8 12 -16 12 -19 0
-3 18 -29 40 -58 22 -29 40 -59 40 -65 0 -7 5 -13 10 -13 6 0 10 -6 10 -14 0
-8 4 -16 8 -18 10 -4 108 -179 105 -189 -1 -4 4 -13 12 -19 8 -7 15 -18 15
-25 0 -6 6 -25 14 -41 68 -141 151 -404 171 -544 4 -24 8 -47 10 -50 2 -3 6
-30 10 -60 3 -30 8 -62 10 -70 7 -27 17 -214 18 -310 0 -183 -15 -358 -49
-535 -10 -55 -54 -240 -61 -255 -3 -8 -7 -18 -8 -22 -2 -5 -3 -9 -5 -10 -1 -2
-3 -11 -6 -20 -8 -33 -11 -43 -23 -73 -7 -16 -14 -34 -15 -40 -1 -5 -5 -16 -9
-22 -5 -7 -10 -22 -12 -32 -9 -49 -170 -353 -213 -403 -8 -10 -12 -18 -9 -18
4 0 -2 -10 -13 -22 -42 -48 -50 -58 -50 -66 0 -5 -8 -17 -18 -28 -10 -10 -24
-28 -32 -40 -63 -89 -254 -284 -383 -390 -122 -101 -121 -100 -154 -121 -15
-10 -37 -26 -47 -35 -11 -10 -28 -20 -38 -24 -10 -3 -18 -10 -18 -15 0 -5 -4
-9 -9 -9 -5 0 -39 -19 -75 -42 -66 -43 -160 -97 -174 -99 -4 -1 -23 -12 -42
-24 -19 -11 -57 -32 -85 -45 -136 -63 -198 -91 -261 -115 -38 -14 -77 -31 -88
-36 -10 -6 -30 -13 -44 -15 -14 -3 -30 -8 -36 -12 -6 -4 -13 -7 -16 -7 -3 0
-41 -12 -85 -27 -70 -23 -150 -47 -180 -54 -5 -1 -35 -9 -65 -18 -30 -8 -66
-17 -80 -20 -14 -2 -54 -11 -90 -20 -36 -8 -76 -17 -90 -20 -14 -2 -36 -7 -50
-10 -30 -7 -81 -15 -137 -23 -24 -3 -44 -8 -44 -12 -1 -3 -2 -278 -3 -609 l-1
-604 69 7 c39 3 73 8 76 10 3 2 28 6 56 9 27 3 59 7 70 10 12 2 39 7 60 10 22
4 46 8 54 11 8 2 32 6 52 9 29 5 173 35 233 50 6 2 28 7 50 11 22 5 42 10 45
10 3 1 19 5 35 9 17 4 37 10 45 13 8 3 24 8 35 10 29 5 244 72 290 90 22 8 47
16 55 18 8 2 38 12 66 23 29 12 55 18 58 15 3 -4 6 -1 6 5 0 7 3 11 8 10 4 -1
21 5 37 12 17 7 36 14 44 16 8 1 28 9 45 18 17 8 89 40 159 72 151 67 409 201
419 217 4 7 8 8 8 3 0 -4 15 3 34 18 19 14 38 26 41 26 13 0 295 192 295 201
0 5 6 9 13 9 6 0 24 10 39 23 42 35 61 50 103 81 22 17 47 38 56 48 9 10 19
18 22 18 25 0 398 378 493 499 10 14 30 36 44 50 13 14 23 28 21 29 -2 2 5 14
16 25 10 12 34 44 53 72 19 27 43 58 53 69 9 11 17 26 17 33 0 7 4 13 8 13 5
0 14 10 21 23 6 12 19 34 29 49 51 79 220 384 222 403 1 5 27 66 65 150 12 28
28 68 35 90 7 22 18 54 26 70 14 32 83 252 89 285 2 11 6 24 9 28 3 5 8 24 11
43 3 19 12 59 19 89 8 30 17 73 21 95 4 22 9 51 12 65 2 14 6 36 8 50 2 14 4
25 5 25 4 0 27 199 36 325 14 173 7 609 -11 740 -2 14 -6 52 -10 85 -4 33 -9
69 -12 80 -2 11 -6 34 -8 50 -9 67 -14 95 -20 114 -3 10 -7 32 -9 47 -5 35
-51 219 -73 289 -21 67 -82 245 -93 270 -5 11 -14 37 -21 58 -7 20 -16 37 -19
37 -4 0 -7 6 -7 13 0 17 -112 246 -172 350 -28 48 -51 92 -51 97 0 4 -4 10 -8
12 -10 4 -72 96 -72 108 0 4 -3 10 -7 12 -5 2 -37 44 -72 93 -36 50 -67 92
-71 95 -5 5 -79 94 -110 134 -30 38 -297 302 -349 346 -30 25 -64 55 -77 68
-13 12 -26 22 -29 22 -3 0 -13 8 -23 18 -34 31 -62 52 -71 52 -5 0 -11 4 -13
8 -5 13 -155 122 -167 122 -6 0 -11 3 -11 8 0 4 -16 16 -35 26 -19 11 -35 23
-35 28 0 5 -4 6 -10 3 -5 -3 -10 -2 -10 3 0 5 -8 12 -17 16 -10 3 -38 19 -63
36 -25 16 -55 34 -67 39 -12 6 -39 21 -60 34 -62 39 -253 136 -253 129 0 -4
-4 -2 -8 3 -4 6 -68 37 -142 69 -74 32 -148 64 -165 71 -60 27 -423 151 -466
160 -9 2 -47 12 -85 24 -38 11 -81 22 -96 25 -15 2 -31 7 -36 10 -5 3 -24 8
-43 11 -19 3 -59 12 -89 20 -30 8 -102 23 -160 35 -58 11 -116 23 -130 25 -14
3 -41 7 -60 10 -19 3 -46 7 -60 9 -30 6 -105 17 -140 21 -14 2 -25 4 -25 5 0
1 -18 4 -40 5 -22 2 -60 6 -85 9 -87 12 -145 18 -200 22 -120 9 -278 17 -327
18 -29 0 -53 4 -53 9 0 4 -6 5 -12 1 -7 -5 -22 -8 -33 -8 -11 0 -26 3 -33 8
-6 4 -12 3 -12 -3 0 -6 -6 -8 -14 -5 -21 8 -346 10 -346 2 0 -4 -13 -3 -29 2
-16 4 -32 6 -35 2z"/>
<path d="M6828 9625 c-1 -2 -37 -6 -79 -9 -97 -7 -141 -14 -209 -32 -30 -8
-62 -16 -71 -18 -14 -4 -63 -23 -121 -49 -16 -6 -28 -16 -28 -20 0 -5 -4 -6
-9 -3 -5 3 -14 -1 -21 -9 -7 -8 -16 -12 -21 -9 -5 3 -9 1 -9 -5 0 -6 -13 -17
-28 -25 -43 -22 -155 -136 -199 -203 -49 -73 -92 -165 -109 -235 -2 -10 -7
-28 -10 -40 -15 -61 -25 -169 -26 -258 0 -113 16 -246 32 -265 6 -7 7 -14 5
-17 -13 -13 76 -210 120 -267 21 -27 110 -126 117 -129 3 -2 17 -12 30 -24 58
-52 214 -138 249 -138 10 0 21 -5 24 -10 4 -6 10 -8 15 -5 5 3 11 1 15 -5 4
-6 10 -8 15 -5 5 3 18 1 28 -4 11 -6 41 -13 69 -16 27 -3 60 -8 74 -11 31 -7
275 -7 314 -1 17 3 59 9 95 12 35 4 75 11 87 16 13 5 27 8 31 8 4 -1 9 0 12 1
13 4 47 12 63 13 9 1 17 5 17 9 0 4 3 7 8 6 18 -4 82 15 82 25 0 6 3 8 6 5 6
-7 143 47 157 61 9 9 12 829 4 838 -7 6 -687 6 -694 -1 -5 -4 -7 -200 -4 -273
1 -23 3 -23 136 -23 74 0 135 -3 136 -7 0 -5 2 -79 2 -166 2 -116 -1 -161 -10
-169 -7 -6 -13 -7 -13 -3 0 4 -7 2 -14 -5 -8 -6 -33 -13 -54 -15 -22 -1 -44
-5 -48 -7 -12 -7 -177 -2 -232 6 -24 3 -51 10 -61 16 -10 5 -21 6 -25 3 -3 -3
-6 0 -6 7 0 7 -3 11 -6 7 -11 -11 -97 41 -150 90 -67 62 -110 141 -140 256 -1
4 -2 8 -3 10 -13 15 -18 226 -8 307 9 81 68 240 89 240 4 0 8 6 8 14 0 29 139
138 194 152 14 3 26 9 26 13 0 4 8 7 18 8 9 1 28 4 42 7 81 15 112 18 175 18
104 -1 162 -8 280 -36 41 -10 142 -49 212 -82 40 -19 76 -35 80 -37 5 -1 8 78
8 176 l1 179 -36 15 c-59 25 -181 62 -255 78 -118 24 -126 25 -240 31 -60 3
-115 7 -122 9 -6 2 -13 2 -15 0z"/>
<path d="M8545 9604 c-38 -7 -88 -18 -110 -25 -43 -13 -177 -70 -185 -79 -3
-3 -25 -18 -50 -34 -66 -43 -180 -161 -208 -216 -7 -14 -23 -43 -35 -65 -21
-38 -61 -149 -72 -202 -3 -13 -7 -33 -10 -45 -25 -113 -22 -373 4 -466 5 -17
8 -32 6 -32 -6 0 40 -130 65 -185 13 -27 34 -65 47 -82 13 -18 21 -33 17 -33
-4 0 36 -42 88 -92 75 -74 111 -102 179 -135 111 -55 109 -54 229 -82 135 -30
386 -31 488 -2 18 5 33 9 35 8 6 -3 152 49 155 55 2 5 12 8 23 8 10 0 19 5 19
10 0 6 3 9 8 8 14 -5 118 72 173 126 60 60 92 96 84 96 -3 0 2 9 12 19 40 44
109 209 128 310 2 9 4 16 5 16 4 0 13 155 14 235 1 208 -42 381 -131 525 -50
80 -91 127 -173 194 -14 11 -31 25 -38 31 -12 11 -99 55 -162 84 -30 13 -83
29 -182 53 -53 12 -355 11 -423 -3z m287 -318 c67 -7 198 -70 198 -95 0 -5 8
-12 18 -15 18 -6 20 -9 62 -92 14 -27 27 -51 30 -54 5 -5 8 -16 14 -45 1 -5 5
-19 9 -30 27 -84 33 -324 11 -427 -21 -97 -22 -103 -24 -105 -2 -2 -3 -6 -5
-10 -14 -50 -83 -157 -116 -181 -10 -7 -24 -18 -31 -25 -20 -18 -78 -49 -78
-41 0 3 -6 2 -13 -4 -41 -35 -263 -34 -304 0 -7 6 -13 8 -13 4 0 -14 -88 49
-127 92 -34 36 -83 114 -89 142 0 3 -3 12 -7 20 -27 71 -40 152 -42 273 -5
286 82 479 251 562 31 15 80 29 112 32 31 3 58 7 60 8 2 2 17 1 33 -2 16 -2
39 -5 51 -7z"/>
<path d="M3451 8720 c0 -964 -5 -896 65 -880 19 4 37 4 40 -1 3 -5 12 -5 22 0
11 6 24 6 34 0 11 -6 19 -5 23 1 5 8 11 8 20 0 9 -8 15 -8 20 0 4 7 12 7 25 0
12 -6 21 -7 25 0 4 6 15 6 30 0 16 -6 25 -6 25 0 0 6 9 6 25 0 16 -6 26 -6 31
1 3 6 10 6 17 1 15 -11 51 -1 55 16 1 6 -3 12 -9 12 -5 0 -7 5 -3 11 4 7 7
164 7 351 0 202 3 341 9 344 13 8 325 7 338 -1 5 -3 10 -3 10 2 0 9 214 8 230
-2 5 -3 10 -3 10 2 0 4 28 8 62 8 l61 0 1 168 c1 104 -3 167 -9 168 -5 1 -167
2 -360 3 l-350 1 -1 162 0 162 330 0 c182 0 355 0 384 0 l52 1 0 170 0 170
-610 0 -609 0 0 -870z"/>
<path d="M5092 8720 c0 -788 2 -871 16 -879 10 -6 24 -5 34 0 12 7 18 6 18 -1
0 -8 6 -8 20 0 14 8 20 8 20 0 0 -8 6 -8 20 0 14 8 20 8 20 0 0 -6 5 -8 11 -5
17 11 59 13 65 4 3 -5 14 -5 24 1 13 7 21 7 25 0 4 -7 13 -7 26 0 13 8 19 7
19 0 0 -7 6 -8 18 -1 11 6 24 6 34 0 11 -6 19 -6 23 1 4 7 12 7 25 0 12 -7 21
-6 27 3 5 7 8 382 8 877 l-1 865 -226 3 -226 2 0 -870z"/>
<path d="M6639 3945 c-3 -2 -117 -7 -254 -10 -247 -6 -390 -12 -390 -15 0 -1
-16 -3 -35 -5 -144 -12 -178 -15 -200 -20 -14 -3 -47 -7 -75 -10 -27 -2 -59
-6 -70 -8 -11 -3 -42 -8 -68 -11 -27 -4 -57 -9 -67 -11 -9 -2 -33 -6 -51 -9
-19 -3 -45 -8 -59 -11 -14 -3 -38 -8 -55 -10 -16 -3 -37 -8 -45 -10 -8 -2 -26
-6 -40 -9 -35 -7 -55 -12 -132 -31 l-68 -17 -1 -52 c-4 -416 4 -1361 11 -1361
1 0 4 -13 5 -30 2 -16 6 -50 10 -75 4 -25 8 -54 9 -65 1 -11 6 -26 10 -34 7
-10 5 -12 -3 -6 -10 6 -11 3 -2 -12 6 -11 7 -23 4 -27 -3 -3 -2 -6 3 -6 5 0
11 -12 12 -27 4 -52 60 -265 89 -338 8 -22 19 -49 23 -60 18 -45 134 -280 140
-285 4 -3 10 -15 14 -27 4 -13 12 -23 17 -23 5 0 9 -5 9 -11 0 -6 25 -47 55
-91 30 -44 55 -83 55 -88 0 -5 3 -10 8 -12 8 -3 68 -82 65 -85 -2 -2 40 -53
70 -84 9 -11 17 -22 17 -26 0 -5 17 -26 38 -48 20 -23 50 -56 66 -75 139 -169
457 -488 646 -649 14 -12 43 -37 65 -56 45 -39 48 -40 67 -23 7 7 33 29 58 49
25 20 59 49 76 65 55 51 98 88 133 117 18 15 31 27 28 27 -4 0 14 19 40 43
100 90 294 292 326 338 10 13 17 19 17 14 0 -5 12 7 28 27 47 62 106 132 124
149 10 9 18 19 18 23 0 3 8 14 18 24 9 10 24 29 32 42 8 12 20 28 25 34 35 37
185 261 185 276 0 5 3 10 8 10 4 0 13 15 21 33 8 17 18 34 21 37 12 8 94 178
133 275 34 82 78 222 91 285 3 14 16 79 30 145 14 66 28 145 31 175 4 30 9 73
12 95 2 22 6 343 7 713 2 608 0 674 -14 682 -18 10 -246 66 -301 74 -20 3 -42
8 -50 10 -8 3 -32 8 -54 10 -22 3 -58 8 -80 12 -22 3 -51 7 -65 9 -14 2 -25 4
-25 5 0 1 -18 3 -40 5 -22 2 -53 6 -69 9 -15 3 -65 8 -110 12 -110 10 -131 12
-131 14 0 2 -164 10 -286 14 -58 1 -110 6 -116 9 -6 4 -12 5 -14 2z m66 -343
c156 -79 236 -241 199 -402 -69 -301 -444 -395 -637 -160 -60 73 -80 124 -83
217 -4 91 12 152 55 217 27 41 91 111 91 100 0 -4 8 0 18 9 9 8 29 19 45 22
15 4 27 11 27 17 0 5 4 7 8 4 4 -2 14 -1 22 4 7 5 54 7 104 6 79 -3 99 -7 151
-34z"/>
</g>
</svg>
